<svg width="99" height="21" viewBox="0 0 99 21" fill="none" xmlns="http://www.w3.org/2000/svg">
<path d="M12.476 17.024H6.188L5.18 20H0.884L6.98 3.152H11.732L17.828 20H13.484L12.476 17.024ZM11.42 13.856L9.332 7.688L7.268 13.856H11.42ZM27.8433 6.464C29.4113 6.464 30.6593 6.976 31.5873 8C32.5313 9.008 33.0033 10.4 33.0033 12.176V20H28.9233V12.728C28.9233 11.832 28.6913 11.136 28.2273 10.64C27.7633 10.144 27.1393 9.896 26.3553 9.896C25.5713 9.896 24.9473 10.144 24.4833 10.64C24.0193 11.136 23.7873 11.832 23.7873 12.728V20H19.6833V6.608H23.7873V8.384C24.2033 7.792 24.7633 7.328 25.4673 6.992C26.1713 6.64 26.9633 6.464 27.8433 6.464ZM35.0392 13.28C35.0392 11.904 35.2952 10.696 35.8072 9.656C36.3352 8.616 37.0472 7.816 37.9432 7.256C38.8392 6.696 39.8392 6.416 40.9432 6.416C41.8232 6.416 42.6232 6.6 43.3432 6.968C44.0792 7.336 44.6552 7.832 45.0712 8.456V2.24H49.1752V20H45.0712V18.08C44.6872 18.72 44.1352 19.232 43.4152 19.616C42.7112 20 41.8872 20.192 40.9432 20.192C39.8392 20.192 38.8392 19.912 37.9432 19.352C37.0472 18.776 36.3352 17.968 35.8072 16.928C35.2952 15.872 35.0392 14.656 35.0392 13.28ZM45.0712 13.304C45.0712 12.28 44.7832 11.472 44.2072 10.88C43.6472 10.288 42.9592 9.992 42.1432 9.992C41.3272 9.992 40.6312 10.288 40.0552 10.88C39.4952 11.456 39.2152 12.256 39.2152 13.28C39.2152 14.304 39.4952 15.12 40.0552 15.728C40.6312 16.32 41.3272 16.616 42.1432 16.616C42.9592 16.616 43.6472 16.32 44.2072 15.728C44.7832 15.136 45.0712 14.328 45.0712 13.304ZM56.2483 8.84C56.7283 8.104 57.3283 7.528 58.0483 7.112C58.7683 6.68 59.5683 6.464 60.4483 6.464V10.808H59.3203C58.2963 10.808 57.5283 11.032 57.0163 11.48C56.5043 11.912 56.2483 12.68 56.2483 13.784V20H52.1443V6.608H56.2483V8.84ZM68.5059 20.192C67.1939 20.192 66.0099 19.912 64.9539 19.352C63.9139 18.792 63.0899 17.992 62.4819 16.952C61.8899 15.912 61.5939 14.696 61.5939 13.304C61.5939 11.928 61.8979 10.72 62.5059 9.68C63.1139 8.624 63.9459 7.816 65.0019 7.256C66.0579 6.696 67.2419 6.416 68.5539 6.416C69.8659 6.416 71.0499 6.696 72.1059 7.256C73.1619 7.816 73.9939 8.624 74.6019 9.68C75.2099 10.72 75.5139 11.928 75.5139 13.304C75.5139 14.68 75.2019 15.896 74.5779 16.952C73.9699 17.992 73.1299 18.792 72.0579 19.352C71.0019 19.912 69.8179 20.192 68.5059 20.192ZM68.5059 16.64C69.2899 16.64 69.9539 16.352 70.4979 15.776C71.0579 15.2 71.3379 14.376 71.3379 13.304C71.3379 12.232 71.0659 11.408 70.5219 10.832C69.9939 10.256 69.3379 9.968 68.5539 9.968C67.7539 9.968 67.0899 10.256 66.5619 10.832C66.0339 11.392 65.7699 12.216 65.7699 13.304C65.7699 14.376 66.0259 15.2 66.5379 15.776C67.0659 16.352 67.7219 16.64 68.5059 16.64ZM79.7551 5.216C79.0351 5.216 78.4431 5.008 77.9791 4.592C77.5311 4.16 77.3071 3.632 77.3071 3.008C77.3071 2.368 77.5311 1.84 77.9791 1.424C78.4431 0.991999 79.0351 0.775999 79.7551 0.775999C80.4591 0.775999 81.0351 0.991999 81.4831 1.424C81.9471 1.84 82.1791 2.368 82.1791 3.008C82.1791 3.632 81.9471 4.16 81.4831 4.592C81.0351 5.008 80.4591 5.216 79.7551 5.216ZM81.7951 6.608V20H77.6911V6.608H81.7951ZM83.9533 13.28C83.9533 11.904 84.2093 10.696 84.7213 9.656C85.2493 8.616 85.9613 7.816 86.8573 7.256C87.7533 6.696 88.7533 6.416 89.8573 6.416C90.7373 6.416 91.5373 6.6 92.2573 6.968C92.9933 7.336 93.5693 7.832 93.9853 8.456V2.24H98.0893V20H93.9853V18.08C93.6013 18.72 93.0493 19.232 92.3293 19.616C91.6253 20 90.8013 20.192 89.8573 20.192C88.7533 20.192 87.7533 19.912 86.8573 19.352C85.9613 18.776 85.2493 17.968 84.7213 16.928C84.2093 15.872 83.9533 14.656 83.9533 13.28ZM93.9853 13.304C93.9853 12.28 93.6973 11.472 93.1213 10.88C92.5613 10.288 91.8733 9.992 91.0573 9.992C90.2413 9.992 89.5453 10.288 88.9693 10.88C88.4093 11.456 88.1293 12.256 88.1293 13.28C88.1293 14.304 88.4093 15.12 88.9693 15.728C89.5453 16.32 90.2413 16.616 91.0573 16.616C91.8733 16.616 92.5613 16.32 93.1213 15.728C93.6973 15.136 93.9853 14.328 93.9853 13.304Z" fill="white"/>
</svg>
